<mxfile host="65bd71144e">
    <diagram id="qC_zaeecLZKnmUMFu6ax" name="Page-1">
        <mxGraphModel dx="1189" dy="664" grid="1" gridSize="10" guides="1" tooltips="1" connect="1" arrows="1" fold="1" page="1" pageScale="1" pageWidth="850" pageHeight="1100" math="0" shadow="0">
            <root>
                <mxCell id="0"/>
                <mxCell id="1" parent="0"/>
                <mxCell id="2" value="" style="shape=table;html=1;whiteSpace=wrap;startSize=0;container=1;collapsible=0;childLayout=tableLayout;" vertex="1" parent="1">
                    <mxGeometry x="140" y="20" width="570" height="510" as="geometry"/>
                </mxCell>
                <mxCell id="3" value="" style="shape=tableRow;horizontal=0;startSize=0;swimlaneHead=0;swimlaneBody=0;top=0;left=0;bottom=0;right=0;collapsible=0;dropTarget=0;fillColor=none;points=[[0,0.5],[1,0.5]];portConstraint=eastwest;" vertex="1" parent="2">
                    <mxGeometry width="570" height="38" as="geometry"/>
                </mxCell>
                <mxCell id="4" value="Customer" style="shape=partialRectangle;html=1;whiteSpace=wrap;connectable=0;fillColor=#dae8fc;top=0;left=0;bottom=0;right=0;overflow=hidden;strokeColor=#6c8ebf;" vertex="1" parent="3">
                    <mxGeometry width="189" height="38" as="geometry">
                        <mxRectangle width="189" height="38" as="alternateBounds"/>
                    </mxGeometry>
                </mxCell>
                <mxCell id="5" value="Railway Reservation System" style="shape=partialRectangle;html=1;whiteSpace=wrap;connectable=0;fillColor=#dae8fc;top=0;left=0;bottom=0;right=0;overflow=hidden;strokeColor=#6c8ebf;" vertex="1" parent="3">
                    <mxGeometry x="189" width="192" height="38" as="geometry">
                        <mxRectangle width="192" height="38" as="alternateBounds"/>
                    </mxGeometry>
                </mxCell>
                <mxCell id="6" value="Backend" style="shape=partialRectangle;html=1;whiteSpace=wrap;connectable=0;fillColor=#dae8fc;top=0;left=0;bottom=0;right=0;overflow=hidden;strokeColor=#6c8ebf;" vertex="1" parent="3">
                    <mxGeometry x="381" width="189" height="38" as="geometry">
                        <mxRectangle width="189" height="38" as="alternateBounds"/>
                    </mxGeometry>
                </mxCell>
                <mxCell id="7" value="" style="shape=tableRow;horizontal=0;startSize=0;swimlaneHead=0;swimlaneBody=0;top=0;left=0;bottom=0;right=0;collapsible=0;dropTarget=0;fillColor=none;points=[[0,0.5],[1,0.5]];portConstraint=eastwest;" vertex="1" parent="2">
                    <mxGeometry y="38" width="570" height="472" as="geometry"/>
                </mxCell>
                <mxCell id="8" value="" style="shape=partialRectangle;html=1;whiteSpace=wrap;connectable=0;fillColor=none;top=0;left=0;bottom=0;right=0;overflow=hidden;" vertex="1" parent="7">
                    <mxGeometry width="189" height="472" as="geometry">
                        <mxRectangle width="189" height="472" as="alternateBounds"/>
                    </mxGeometry>
                </mxCell>
                <mxCell id="9" value="" style="shape=partialRectangle;html=1;whiteSpace=wrap;connectable=0;fillColor=none;top=0;left=0;bottom=0;right=0;overflow=hidden;" vertex="1" parent="7">
                    <mxGeometry x="189" width="192" height="472" as="geometry">
                        <mxRectangle width="192" height="472" as="alternateBounds"/>
                    </mxGeometry>
                </mxCell>
                <mxCell id="10" value="" style="shape=partialRectangle;html=1;whiteSpace=wrap;connectable=0;fillColor=none;top=0;left=0;bottom=0;right=0;overflow=hidden;pointerEvents=1;" vertex="1" parent="7">
                    <mxGeometry x="381" width="189" height="472" as="geometry">
                        <mxRectangle width="189" height="472" as="alternateBounds"/>
                    </mxGeometry>
                </mxCell>
                <mxCell id="11" style="edgeStyle=none;html=1;" edge="1" parent="1" source="12" target="14">
                    <mxGeometry relative="1" as="geometry"/>
                </mxCell>
                <mxCell id="12" value="" style="ellipse;whiteSpace=wrap;html=1;fillColor=#030303;" vertex="1" parent="1">
                    <mxGeometry x="220" y="70" width="20" height="20" as="geometry"/>
                </mxCell>
                <mxCell id="13" style="edgeStyle=none;html=1;" edge="1" parent="1" source="14" target="16">
                    <mxGeometry relative="1" as="geometry"/>
                </mxCell>
                <mxCell id="14" value="Enter user Details" style="whiteSpace=wrap;html=1;fillColor=#FAFAFA;rounded=1;" vertex="1" parent="1">
                    <mxGeometry x="170" y="120" width="120" height="30" as="geometry"/>
                </mxCell>
                <mxCell id="15" style="edgeStyle=none;html=1;entryX=0;entryY=0.5;entryDx=0;entryDy=0;" edge="1" parent="1" source="16" target="22">
                    <mxGeometry relative="1" as="geometry"/>
                </mxCell>
                <mxCell id="16" value="Display Login Page" style="whiteSpace=wrap;html=1;fillColor=#FAFAFA;rounded=1;" vertex="1" parent="1">
                    <mxGeometry x="360" y="120" width="120" height="30" as="geometry"/>
                </mxCell>
                <mxCell id="50" style="edgeStyle=none;html=1;" edge="1" parent="1" source="18" target="39">
                    <mxGeometry relative="1" as="geometry"/>
                </mxCell>
                <mxCell id="18" value="Show Available Seat" style="whiteSpace=wrap;html=1;fillColor=#FAFAFA;rounded=1;" vertex="1" parent="1">
                    <mxGeometry x="360" y="238.5" width="120" height="30" as="geometry"/>
                </mxCell>
                <mxCell id="19" style="edgeStyle=none;html=1;" edge="1" parent="1" source="20" target="18">
                    <mxGeometry relative="1" as="geometry"/>
                </mxCell>
                <mxCell id="20" value="Book Seat" style="whiteSpace=wrap;html=1;fillColor=#FAFAFA;rounded=1;" vertex="1" parent="1">
                    <mxGeometry x="170" y="240" width="120" height="30" as="geometry"/>
                </mxCell>
                <mxCell id="21" style="edgeStyle=none;html=1;" edge="1" parent="1" source="22" target="27">
                    <mxGeometry relative="1" as="geometry"/>
                </mxCell>
                <mxCell id="22" value="Verify User" style="whiteSpace=wrap;html=1;fillColor=#FAFAFA;rounded=1;" vertex="1" parent="1">
                    <mxGeometry x="558" y="120" width="120" height="30" as="geometry"/>
                </mxCell>
                <mxCell id="23" style="edgeStyle=none;html=1;entryX=1;entryY=0.5;entryDx=0;entryDy=0;" edge="1" parent="1" source="27" target="29">
                    <mxGeometry relative="1" as="geometry"/>
                </mxCell>
                <mxCell id="24" value="invalid" style="edgeLabel;html=1;align=center;verticalAlign=middle;resizable=0;points=[];" vertex="1" connectable="0" parent="23">
                    <mxGeometry x="-0.4892" y="-1" relative="1" as="geometry">
                        <mxPoint x="-10" as="offset"/>
                    </mxGeometry>
                </mxCell>
                <mxCell id="25" style="edgeStyle=none;html=1;entryX=0.75;entryY=0;entryDx=0;entryDy=0;" edge="1" parent="1" source="27" target="20">
                    <mxGeometry relative="1" as="geometry">
                        <Array as="points">
                            <mxPoint x="618" y="220"/>
                            <mxPoint x="260" y="220"/>
                        </Array>
                    </mxGeometry>
                </mxCell>
                <mxCell id="26" value="valid" style="edgeLabel;html=1;align=center;verticalAlign=middle;resizable=0;points=[];" vertex="1" connectable="0" parent="25">
                    <mxGeometry x="-0.6697" y="1" relative="1" as="geometry">
                        <mxPoint x="2" as="offset"/>
                    </mxGeometry>
                </mxCell>
                <mxCell id="27" value="" style="rhombus;whiteSpace=wrap;html=1;fillColor=#ffe6cc;strokeColor=#d79b00;" vertex="1" parent="1">
                    <mxGeometry x="612" y="180" width="12" height="30" as="geometry"/>
                </mxCell>
                <mxCell id="28" style="edgeStyle=none;html=1;entryX=0.5;entryY=0;entryDx=0;entryDy=0;" edge="1" parent="1" source="29" target="20">
                    <mxGeometry relative="1" as="geometry">
                        <Array as="points">
                            <mxPoint x="230" y="195"/>
                        </Array>
                    </mxGeometry>
                </mxCell>
                <mxCell id="29" value="Create New User" style="whiteSpace=wrap;html=1;fillColor=#FAFAFA;rounded=1;" vertex="1" parent="1">
                    <mxGeometry x="360" y="180" width="120" height="30" as="geometry"/>
                </mxCell>
                <mxCell id="36" style="edgeStyle=none;html=1;" edge="1" parent="1" source="37" target="43">
                    <mxGeometry relative="1" as="geometry"/>
                </mxCell>
                <mxCell id="37" value="Reserve Flight" style="whiteSpace=wrap;html=1;fillColor=#FAFAFA;rounded=1;" vertex="1" parent="1">
                    <mxGeometry x="560" y="368.5" width="120" height="30" as="geometry"/>
                </mxCell>
                <mxCell id="38" style="edgeStyle=none;html=1;entryX=0;entryY=0.5;entryDx=0;entryDy=0;" edge="1" parent="1" source="39" target="49">
                    <mxGeometry relative="1" as="geometry"/>
                </mxCell>
                <mxCell id="39" value="Payment UI" style="whiteSpace=wrap;html=1;fillColor=#FAFAFA;rounded=1;" vertex="1" parent="1">
                    <mxGeometry x="360" y="298.5" width="120" height="30" as="geometry"/>
                </mxCell>
                <mxCell id="40" style="edgeStyle=none;html=1;entryX=0;entryY=0.5;entryDx=0;entryDy=0;" edge="1" parent="1" source="41" target="39">
                    <mxGeometry relative="1" as="geometry"/>
                </mxCell>
                <mxCell id="41" value="Enter Credentials" style="whiteSpace=wrap;html=1;fillColor=#FAFAFA;rounded=1;" vertex="1" parent="1">
                    <mxGeometry x="170" y="300" width="120" height="30" as="geometry"/>
                </mxCell>
                <mxCell id="42" style="edgeStyle=none;html=1;" edge="1" parent="1" source="43" target="45">
                    <mxGeometry relative="1" as="geometry"/>
                </mxCell>
                <mxCell id="43" value="Provide Ticket" style="whiteSpace=wrap;html=1;fillColor=#FAFAFA;rounded=1;" vertex="1" parent="1">
                    <mxGeometry x="360" y="368.5" width="120" height="30" as="geometry"/>
                </mxCell>
                <mxCell id="44" style="edgeStyle=none;html=1;entryX=0.5;entryY=0;entryDx=0;entryDy=0;" edge="1" parent="1" source="45" target="47">
                    <mxGeometry relative="1" as="geometry"/>
                </mxCell>
                <mxCell id="45" value="Take Ticket" style="whiteSpace=wrap;html=1;fillColor=#FAFAFA;rounded=1;" vertex="1" parent="1">
                    <mxGeometry x="170" y="368.5" width="120" height="30" as="geometry"/>
                </mxCell>
                <mxCell id="46" value="" style="ellipse;whiteSpace=wrap;html=1;fillColor=#030303;" vertex="1" parent="1">
                    <mxGeometry x="225" y="490" width="10" height="10" as="geometry"/>
                </mxCell>
                <mxCell id="47" value="" style="ellipse;whiteSpace=wrap;html=1;fillColor=none;" vertex="1" parent="1">
                    <mxGeometry x="220" y="485" width="20" height="20" as="geometry"/>
                </mxCell>
                <mxCell id="48" style="edgeStyle=none;html=1;" edge="1" parent="1" source="49" target="37">
                    <mxGeometry relative="1" as="geometry"/>
                </mxCell>
                <mxCell id="49" value="Perform Transaction" style="whiteSpace=wrap;html=1;fillColor=#FAFAFA;rounded=1;" vertex="1" parent="1">
                    <mxGeometry x="559" y="298.5" width="120" height="30" as="geometry"/>
                </mxCell>
            </root>
        </mxGraphModel>
    </diagram>
</mxfile>